<svg xmlns="http://www.w3.org/2000/svg" version="1.1" viewBox="0 0 64 64" width="32" height="32">
	<path
		d="M24.8133 38.533C18.76 31.493 13 28.8264 13 20.8264C13.4827 14.9864 16.552 9.67169 21.368 6.33302C33.768 -2.26165 50.824 5.78902 52.0667 20.8264C52.0667 28.613 46.5733 31.6797 40.6533 38.373C32.4933 47.5464 35.4 63.093 32.4933 63.093C29.72 63.093 32.4933 47.5464 24.8133 38.533ZM32.4933 8.23969C26.5573 8.23969 21.7467 13.0504 21.7467 18.9864C21.7467 24.9224 26.5573 29.733 32.4933 29.733C38.4293 29.733 43.24 24.9224 43.24 18.9864C43.24 13.0504 38.4293 8.23969 32.4933 8.23969Z"
		fill="#2b678c" />
	<circle fill="white" cx="50%" cy="30%" r="13"></circle>
</svg>
